<?xml version="1.0" encoding="UTF-8"?>
<svg id="Capa_6" data-name="Capa 6" xmlns="http://www.w3.org/2000/svg" viewBox="0 0 705.72 139.47">
  <defs>
    <style>
      .cls-1 {
        fill: #fff;
      }
    </style>
  </defs>
  <path class="cls-1" d="m31.99,97.52h-11.92v-50.84h11.92v50.84Z"/>
  <path class="cls-1" d="m113.04,97.52h-50.75c-3.26,0-6.22-.78-8.88-2.34-2.66-1.56-4.79-3.65-6.37-6.25-1.58-2.6-2.39-5.5-2.42-8.69v-1.63h11.92v1.63c0,1.53.55,2.81,1.65,3.83,1.1,1.02,2.47,1.53,4.09,1.53h50.75c1.63,0,2.99-.51,4.09-1.53,1.1-1.02,1.65-2.3,1.65-3.83v-5.7c0-1.53-.55-2.81-1.65-3.83-1.1-1.02-2.47-1.53-4.09-1.53h-50.75c-3.26,0-6.22-.78-8.88-2.34-2.66-1.56-4.79-3.66-6.39-6.27-1.6-2.62-2.39-5.52-2.39-8.71v-5.65c0-3.19.8-6.1,2.39-8.71s3.73-4.71,6.39-6.27c2.66-1.56,5.63-2.35,8.88-2.35h50.75c3.26,0,6.21.78,8.88,2.35,2.66,1.56,4.79,3.65,6.39,6.27s2.39,5.52,2.39,8.71v1.58h-11.92v-1.58c0-1.53-.55-2.82-1.65-3.85-1.1-1.04-2.47-1.56-4.09-1.56h-50.75c-1.63,0-2.99.52-4.09,1.56-1.1,1.04-1.65,2.32-1.65,3.85v5.65c0,1.53.55,2.82,1.65,3.85,1.1,1.04,2.47,1.56,4.09,1.56h50.75c3.26,0,6.21.77,8.88,2.32,2.66,1.55,4.79,3.63,6.39,6.25,1.6,2.62,2.39,5.52,2.39,8.71v5.7c0,3.16-.8,6.05-2.39,8.66s-3.73,4.71-6.39,6.27c-2.67,1.56-5.63,2.34-8.88,2.34Z"/>
  <path class="cls-1" d="m214.14,97.52h-11.92v-36.48c0-2.01-.69-3.7-2.06-5.07-1.37-1.37-3.06-2.06-5.07-2.06h-32.7c-2.01,0-3.7.69-5.07,2.06-1.37,1.37-2.06,3.06-2.06,5.07v36.48h-11.92V28.87h11.92v14.5c2.33-.92,4.71-1.39,7.13-1.39h32.7c3.51,0,6.71.85,9.6,2.56,2.89,1.71,5.19,4,6.89,6.89,1.71,2.89,2.56,6.09,2.56,9.6v36.48Z"/>
  <path class="cls-1" d="m280.74,97.52h-34.9c-3.51,0-6.7-.86-9.57-2.59-2.87-1.72-5.17-4.02-6.89-6.89-1.72-2.87-2.59-6.06-2.59-9.57v-17.43c0-3.51.86-6.71,2.59-9.6,1.72-2.89,4.02-5.19,6.89-6.89,2.87-1.71,6.06-2.56,9.57-2.56h34.9c3.51,0,6.7.85,9.57,2.56,2.87,1.71,5.17,4,6.89,6.89,1.72,2.89,2.59,6.09,2.59,9.6v17.43c0,3.51-.86,6.7-2.59,9.57-1.72,2.87-4.02,5.17-6.89,6.89-2.87,1.72-6.06,2.59-9.57,2.59Zm0-11.92c1.98,0,3.66-.69,5.05-2.06,1.39-1.37,2.08-3.06,2.08-5.07v-17.43c0-2.01-.7-3.7-2.08-5.07-1.39-1.37-3.07-2.06-5.05-2.06h-34.9c-2.01,0-3.7.69-5.07,2.06-1.37,1.37-2.06,3.06-2.06,5.07v17.43c0,2.01.69,3.7,2.06,5.07,1.37,1.37,3.06,2.06,5.07,2.06h34.9Z"/>
  <path class="cls-1" d="m324.97,110.59h-11.92V41.94h51.75c3.51,0,6.71.86,9.6,2.58,2.89,1.72,5.19,4.03,6.89,6.92,1.71,2.89,2.56,6.07,2.56,9.55v17.47c0,3.48-.85,6.66-2.56,9.55-1.71,2.89-4.01,5.19-6.89,6.92-2.89,1.72-6.09,2.59-9.6,2.59h-32.7c-2.46,0-4.84-.46-7.13-1.39v14.46Zm39.83-24.99c2.01,0,3.7-.7,5.07-2.08,1.37-1.39,2.06-3.07,2.06-5.05v-17.47c0-1.98-.69-3.66-2.06-5.05-1.37-1.39-3.06-2.08-5.07-2.08h-39.83v24.61c.06,2.07.76,3.78,2.08,5.12,1.32,1.34,3.01,2.01,5.05,2.01h32.7Z"/>
  <path class="cls-1" d="m443.17,97.52h-27.77c-3.51,0-6.7-.86-9.57-2.59-2.87-1.72-5.17-4.02-6.89-6.89-1.72-2.87-2.59-6.06-2.59-9.57V28.87h11.92v13.12h30.54v11.92h-30.54v24.56c0,2.01.69,3.7,2.06,5.07,1.37,1.37,3.06,2.06,5.07,2.06h27.77v11.92Z"/>
  <path class="cls-1" d="m519.86,97.52h-48.64c-3.51,0-6.7-.86-9.57-2.59-2.87-1.72-5.17-4.02-6.89-6.89-1.72-2.87-2.59-6.06-2.59-9.57v-19.63c0-3.13.86-5.97,2.59-8.52,1.72-2.55,4.04-4.58,6.94-6.08,2.9-1.5,6.11-2.25,9.62-2.25h32.5c3.54,0,6.76.75,9.65,2.25,2.89,1.5,5.19,3.53,6.92,6.08,1.72,2.55,2.59,5.39,2.59,8.52v16.85h-58.88v2.78c0,2.01.69,3.7,2.06,5.07,1.37,1.37,3.06,2.06,5.07,2.06h48.64v11.92Zm-8.81-33.75v-4.93c0-1.18-.66-2.3-1.99-3.35-1.33-1.05-3.07-1.58-5.24-1.58h-32.5c-2.17,0-3.92.53-5.24,1.58-1.33,1.05-1.99,2.17-1.99,3.35v4.93h46.96Z"/>
  <path class="cls-1" d="m602.59,97.52h-49.6c-3.51,0-6.7-.86-9.57-2.59-2.87-1.72-5.17-4.02-6.89-6.89-1.72-2.87-2.59-6.06-2.59-9.57v-17.43c0-3.51.86-6.71,2.59-9.6,1.72-2.89,4.02-5.19,6.89-6.89,2.87-1.71,6.06-2.56,9.57-2.56h49.6v11.92h-49.6c-2.01,0-3.7.69-5.07,2.06-1.37,1.37-2.06,3.06-2.06,5.07v17.43c0,2.01.69,3.7,2.06,5.07,1.37,1.37,3.06,2.06,5.07,2.06h49.6v11.92Z"/>
  <path class="cls-1" d="m685.65,97.52h-11.92v-36.48c0-2.01-.69-3.7-2.06-5.07-1.37-1.37-3.06-2.06-5.08-2.06h-32.7c-2.01,0-3.7.69-5.07,2.06-1.37,1.37-2.06,3.06-2.06,5.07v36.48h-11.92V28.87h11.92v14.5c2.33-.92,4.71-1.39,7.13-1.39h32.7c3.51,0,6.71.85,9.6,2.56,2.89,1.71,5.19,4,6.89,6.89,1.71,2.89,2.56,6.09,2.56,9.6v36.48Z"/>
  <rect class="cls-1" x="20.07" y="28.87" width="11.92" height="11.92"/>
</svg>